<svg id="Capa_1" data-name="Capa 1" xmlns="http://www.w3.org/2000/svg" xmlns:xlink="http://www.w3.org/1999/xlink" viewBox="0 0 567.51 137.73"><defs><style>.cls-1{fill:none;}.cls-2{clip-path:url(#clip-path);}.cls-3{fill:#1d1d1b;}</style><clipPath id="clip-path" transform="translate(-12.68 -352.63)"><path class="cls-1" d="M577.89,445.93H453.13s-26.84,1.52-37.44,14.67c0,0-14.66,25.56-73.08,23.37l-283.15.13s-25.57,4.25-37.2-21.31V380.2c11.63-25.56,37.2-21.31,37.2-21.31l283.15.14c58.42-2.2,73.08,23.37,73.08,23.37,10.6,13.14,37.44,14.66,37.44,14.66H577.89Z"/></clipPath></defs><g class="cls-2"><path class="cls-3" d="M49.14,428.79q0,15.42-.43,21.85A35.61,35.61,0,0,1,46,462.37a19.23,19.23,0,0,1-6.12,8.16,14.71,14.71,0,0,1-9,2.84,15,15,0,0,1-8.74-2.68,18.59,18.59,0,0,1-6.23-8.07,35.11,35.11,0,0,1-2.81-11.7q-.45-6.32-.45-22.13V411.27q0-15.43.43-21.85a36,36,0,0,1,2.7-11.74,19.23,19.23,0,0,1,6.12-8.16,14.75,14.75,0,0,1,9-2.84,14.9,14.9,0,0,1,8.74,2.69,18.5,18.5,0,0,1,6.24,8.06,35.17,35.17,0,0,1,2.81,11.7q.44,6.33.44,22.14ZM33.38,395.14a53.42,53.42,0,0,0-.46-9.14c-.32-1.33-1-2-1.93-2s-1.46.54-1.89,1.61-.66,4.25-.66,9.52V443a80,80,0,0,0,.43,11c.29,1.39,1,2.09,2,2.09s1.76-.8,2.05-2.41a84.78,84.78,0,0,0,.45-11.45Z" transform="translate(-12.68 -352.63)"/><path class="cls-3" d="M86.77,354.43v26.85H77.41V488.56H61.65V381.28H52.33V354.43Z" transform="translate(-12.68 -352.63)"/><path class="cls-3" d="M90.36,354.43h11.16q11.15,0,15.1,1.91t6.44,9.73q2.49,7.83,2.49,25,0,15.66-1.76,21a8.87,8.87,0,0,1-6.92,6.47,13,13,0,0,1,6.29,6.87,33.12,33.12,0,0,1,2,7.91q.39,3.62.39,19.85v35.37H110.91V444q0-10.77-.76-13.34c-.51-1.71-1.86-2.57-4-2.57v60.48H90.36Zm15.76,22.95v29.83a4.13,4.13,0,0,0,3.73-1.62q1.07-1.62,1.06-10.48v-7.37c0-4.26-.34-7-1-8.37A3.84,3.84,0,0,0,106.12,377.38Z" transform="translate(-12.68 -352.63)"/><path class="cls-3" d="M158.9,354.43l9,135.93H151.8L151,465.93h-5.64l-.95,24.43H128.08l8-135.93Zm-8.36,87.4q-1.18-23.08-2.4-57.09-2.4,39-3,57.09Z" transform="translate(-12.68 -352.63)"/><path class="cls-3" d="M184.1,352.63h15.72q7.45,0,11.29,2.6t6.2,10.53q2.35,7.94,2.36,25.55,0,11.91-1.67,16.61a12.79,12.79,0,0,1-6.57,7.22,14.49,14.49,0,0,1,7.41,9.2q1.95,6.42,1.95,19.7v12.6q0,13.78-1.4,20.41t-4.48,9.08q-3.06,2.43-12.58,2.43H184.1Zm15.76,23.26v30.22c.68-.05,1.2-.08,1.57-.08a2.89,2.89,0,0,0,3-2.56q.65-2.57.64-14.65a51.23,51.23,0,0,0-.53-8.94c-.35-1.71-.8-2.79-1.36-3.24A6,6,0,0,0,199.86,375.89Zm0,51.38v38q3.33-.26,4.25-2.36c.61-1.39.92-4.84.92-10.32V440q0-8.73-.83-10.58T199.86,427.27Z" transform="translate(-12.68 -352.63)"/><path class="cls-3" d="M262.46,432.51q0,19.39-.43,27.47a55,55,0,0,1-2.7,14.75A24.33,24.33,0,0,1,253.21,485a12.79,12.79,0,0,1-9,3.58,12.93,12.93,0,0,1-8.74-3.38q-3.87-3.37-6.23-10.13a53.79,53.79,0,0,1-2.81-14.71q-.45-7.95-.45-27.83v-22q0-19.41.43-27.47a55,55,0,0,1,2.7-14.75A24.37,24.37,0,0,1,235.24,358a12.81,12.81,0,0,1,9-3.58,13,13,0,0,1,8.75,3.38c2.58,2.26,4.66,5.63,6.23,10.14A53.72,53.72,0,0,1,262,382.66q.45,7.95.45,27.83Zm-15.76-42.3a83.61,83.61,0,0,0-.47-11.49c-.32-1.67-1-2.5-1.93-2.5s-1.46.67-1.89,2-.66,5.33-.66,12v60.11a126.21,126.21,0,0,0,.43,13.83c.29,1.75,1,2.63,2,2.63s1.76-1,2.06-3a133.9,133.9,0,0,0,.45-14.4Z" transform="translate(-12.68 -352.63)"/><path class="cls-3" d="M300.08,352.63v27.2h-9.36V488.56H275V379.83h-9.32v-27.2Z" transform="translate(-12.68 -352.63)"/><path class="cls-3" d="M303.67,352.63H330v27.2H319.43v25.78h9.85v25.86h-9.85v29.89H331v27.2H303.67Z" transform="translate(-12.68 -352.63)"/><path class="cls-3" d="M351.29,352.63V461.36h9.59v27.2H335.53V352.63Z" transform="translate(-12.68 -352.63)"/><path class="cls-3" d="M380.45,352.63V461.36H390v27.2H364.69V352.63Z" transform="translate(-12.68 -352.63)"/><path class="cls-3" d="M423,374.5l9,98.87h-16.1l-.85-17.77h-5.64l-.95,17.77H392.19l8-98.87Zm-8.35,63.57q-1.2-16.8-2.4-41.53-2.42,28.41-3,41.53Z" transform="translate(-12.68 -352.63)"/><rect class="cls-3" x="426.18" y="37.81" width="141.33" height="62.11"/></g></svg>